# xmcd
# 
# Track frame offsets:
#     150
#     16563
#     33131
#     50354
#     65504
#     83870
#     99560
#     114957
#     134919
#     152370
#     170943
#     198468
# 
# Disc length: 3321
# 
# Revision: 1
# Processed by: cddbd v1.5.2PL0 Copyright (c) Steve Scherf et al.
# Submitted via: BonkEnc v1.0.8
# 
DISCID=970cf70c
DTITLE=Petteri Sariola - Silence
DYEAR=2008
DGENRE=Jazz
TTITLE0=Stomp
TTITLE1=Silence
TTITLE2=Valve 1
TTITLE3=Prime
TTITLE4=Without you
TTITLE5=Valve 2
TTITLE6=Untitled Blues
TTITLE7=Valve 3
TTITLE8=Train
TTITLE9=Mothersong
TTITLE10=Where the streets have no Name
TTITLE11=Data
EXTD=
EXTT0=
EXTT1=
EXTT2=
EXTT3=
EXTT4=
EXTT5=
EXTT6=
EXTT7=
EXTT8=
EXTT9=
EXTT10=
EXTT11=
PLAYORDER=
